<svg width="24" height="24" viewBox="0 0 24 24" fill="none" xmlns="http://www.w3.org/2000/svg">
<path fill-rule="evenodd" clip-rule="evenodd" d="M17.1453 21.1907C13.7447 21.1919 9.14449 21.1907 5.74871 21.1907C4.63309 21.1846 3.58385 20.3799 3.31219 19.2836C3.16851 18.7047 3.25244 18.0768 3.51021 17.5431C4.89267 14.713 7.85982 12.7251 11.0793 12.6225C11.1844 12.6194 11.29 12.6182 11.3957 12.6182C13.9119 12.6327 16.3936 13.7918 18.0194 15.7073C20.2727 17.9091 19.5818 19.2836 19.5818 19.2836C19.5818 19.2836 19.1933 20.3075 18.6923 20.6364C18.1913 20.9654 17.7413 21.1266 17.1453 21.1907ZM18.6406 19.4116C18.6406 19.4116 19.3636 17.9091 17.2479 16.1082C15.7984 14.4734 13.6028 13.4761 11.3927 13.4634C11.3703 13.4634 11.3486 13.4634 11.3262 13.4634C8.43513 13.4833 5.58993 15.2189 4.28535 17.8812C4.05111 18.3593 4.02218 18.9389 4.25339 19.4116C4.52204 19.9622 5.10639 20.3389 5.73604 20.3455C8.82091 20.3618 13.1024 20.3467 16.1818 20.3455H16.8187C16.8157 20.3328 16.8127 20.3201 16.8097 20.3075C16.8018 20.2736 16.8187 20.3455 16.8187 20.3455H17.158C18.4546 20.1819 18.6406 19.4116 18.6406 19.4116ZM11.3938 2.81545C13.2079 2.83356 14.9484 3.95281 15.6916 5.64738C16.2693 6.96524 16.198 8.55234 15.502 9.81466C14.5548 11.5322 12.4769 12.5494 10.4986 12.1829C8.51965 11.8159 6.87218 10.0761 6.66451 8.0205C6.46771 6.07963 7.58512 4.06267 9.41975 3.2332C10.0373 2.95429 10.7171 2.81364 11.3938 2.81545ZM11.3377 3.66062C10.3187 3.67088 9.31051 4.09228 8.58849 4.8306C7.38774 6.05911 7.13055 8.09957 8.08378 9.6082C9.03943 11.1205 11.1228 11.8395 12.85 11.1211C14.3755 10.486 15.4024 8.81797 15.2183 7.11797C15.074 5.7826 14.1805 4.5559 12.958 4.00353C12.4515 3.77473 11.8967 3.65941 11.3377 3.66062Z" fill="black"/>
</svg>
