<svg width="24" height="24" viewBox="0 0 24 24" fill="none" xmlns="http://www.w3.org/2000/svg">
<path d="M4.375 7.32547H7.03375C7.1251 7.78978 7.39741 8.21054 7.80277 8.51374C8.20813 8.81693 8.72059 8.98315 9.25 8.98315C9.77941 8.98315 10.2919 8.81693 10.6972 8.51374C11.1026 8.21054 11.3749 7.78978 11.4662 7.32547H19.375C19.4745 7.32547 19.5698 7.29029 19.6402 7.22767C19.7105 7.16506 19.75 7.08013 19.75 6.99158C19.75 6.90302 19.7105 6.81809 19.6402 6.75548C19.5698 6.69286 19.4745 6.65768 19.375 6.65768H11.4662C11.3749 6.19337 11.1026 5.77261 10.6972 5.46941C10.2919 5.16622 9.77941 5 9.25 5C8.72059 5 8.20813 5.16622 7.80277 5.46941C7.39741 5.77261 7.1251 6.19337 7.03375 6.65768H4.375C4.27554 6.65768 4.18016 6.69286 4.10983 6.75548C4.03951 6.81809 4 6.90302 4 6.99158C4 7.08013 4.03951 7.16506 4.10983 7.22767C4.18016 7.29029 4.27554 7.32547 4.375 7.32547ZM9.25 5.65599C9.54667 5.65599 9.83668 5.73433 10.0834 5.88108C10.33 6.02784 10.5223 6.23643 10.6358 6.48047C10.7494 6.72452 10.7791 6.99306 10.7212 7.25213C10.6633 7.51121 10.5204 7.74919 10.3107 7.93597C10.1009 8.12276 9.83361 8.24996 9.54264 8.30149C9.25166 8.35303 8.95006 8.32658 8.67597 8.22549C8.40189 8.1244 8.16762 7.95322 8.0028 7.73358C7.83797 7.51395 7.75 7.25573 7.75 6.99158C7.75 6.63736 7.90804 6.29765 8.18934 6.04718C8.47064 5.79671 8.85218 5.65599 9.25 5.65599ZM19.375 11.6661H16.7162C16.6249 11.2018 16.3526 10.781 15.9472 10.4778C15.5419 10.1746 15.0294 10.0084 14.5 10.0084C13.9706 10.0084 13.4581 10.1746 13.0528 10.4778C12.6474 10.781 12.3751 11.2018 12.2838 11.6661H4.375C4.27554 11.6661 4.18016 11.7013 4.10983 11.7639C4.03951 11.8265 4 11.9114 4 12C4 12.0886 4.03951 12.1735 4.10983 12.2361C4.18016 12.2987 4.27554 12.3339 4.375 12.3339H12.2838C12.3751 12.7982 12.6474 13.219 13.0528 13.5222C13.4581 13.8254 13.9706 13.9916 14.5 13.9916C15.0294 13.9916 15.5419 13.8254 15.9472 13.5222C16.3526 13.219 16.6249 12.7982 16.7162 12.3339H19.375C19.4745 12.3339 19.5698 12.2987 19.6402 12.2361C19.7105 12.1735 19.75 12.0886 19.75 12C19.75 11.9114 19.7105 11.8265 19.6402 11.7639C19.5698 11.7013 19.4745 11.6661 19.375 11.6661ZM14.5 13.3356C14.2033 13.3356 13.9133 13.2572 13.6666 13.1105C13.42 12.9637 13.2277 12.7552 13.1142 12.5111C13.0006 12.2671 12.9709 11.9985 13.0288 11.7394C13.0867 11.4804 13.2296 11.2424 13.4393 11.0556C13.6491 10.8688 13.9164 10.7416 14.2074 10.6901C14.4983 10.6385 14.7999 10.665 15.074 10.7661C15.3481 10.8672 15.5824 11.0384 15.7472 11.258C15.912 11.4776 16 11.7358 16 12C16 12.3542 15.842 12.6939 15.5607 12.9444C15.2794 13.1949 14.8978 13.3356 14.5 13.3356ZM19.375 16.6745H11.4662C11.3749 16.2102 11.1026 15.7895 10.6972 15.4863C10.2919 15.1831 9.77941 15.0169 9.25 15.0169C8.72059 15.0169 8.20813 15.1831 7.80277 15.4863C7.39741 15.7895 7.1251 16.2102 7.03375 16.6745H4.375C4.27554 16.6745 4.18016 16.7097 4.10983 16.7723C4.03951 16.8349 4 16.9199 4 17.0084C4 17.097 4.03951 17.1819 4.10983 17.2445C4.18016 17.3071 4.27554 17.3423 4.375 17.3423H7.03375C7.1251 17.8066 7.39741 18.2274 7.80277 18.5306C8.20813 18.8338 8.72059 19 9.25 19C9.77941 19 10.2919 18.8338 10.6972 18.5306C11.1026 18.2274 11.3749 17.8066 11.4662 17.3423H19.375C19.4745 17.3423 19.5698 17.3071 19.6402 17.2445C19.7105 17.1819 19.75 17.097 19.75 17.0084C19.75 16.9199 19.7105 16.8349 19.6402 16.7723C19.5698 16.7097 19.4745 16.6745 19.375 16.6745ZM9.25 18.344C8.95333 18.344 8.66332 18.2657 8.41665 18.1189C8.16997 17.9722 7.97771 17.7636 7.86418 17.5195C7.75065 17.2755 7.72094 17.0069 7.77882 16.7479C7.8367 16.4888 7.97956 16.2508 8.18934 16.064C8.39912 15.8772 8.66639 15.75 8.95737 15.6985C9.24834 15.647 9.54994 15.6734 9.82403 15.7745C10.0981 15.8756 10.3324 16.0468 10.4972 16.2664C10.662 16.4861 10.75 16.7443 10.75 17.0084C10.75 17.3626 10.592 17.7024 10.3107 17.9528C10.0294 18.2033 9.64782 18.344 9.25 18.344Z" fill="#1B1C1E" stroke="#1B1C1E" stroke-width="0.2"/>
</svg>
