<svg width="6" height="10" viewBox="0 0 6 10" fill="none" xmlns="http://www.w3.org/2000/svg">
<path d="M5.92606 9.03939C5.97338 9.08632 6 9.15021 6 9.21686C6 9.28351 5.97338 9.3474 5.92606 9.39433L5.39614 9.92425C5.35078 9.97258 5.28745 10 5.22117 10C5.15489 10 5.09156 9.97258 5.0462 9.92425L0.451893 5.32995C0.381557 5.2597 0.341998 5.1644 0.34191 5.06499V4.93501C0.341998 4.8356 0.381557 4.7403 0.451893 4.67005L5.0462 0.0757475C5.09156 0.0274162 5.15489 0 5.22117 0C5.28745 0 5.35078 0.0274162 5.39614 0.0757475L5.92606 0.605667C5.97338 0.652601 6 0.716491 6 0.78314C6 0.84979 5.97338 0.913679 5.92606 0.960613L1.88667 5L5.92606 9.03939Z" fill="#1B1C1E"/>
</svg>
