<svg width="16" height="16" viewBox="0 0 16 16" fill="none" xmlns="http://www.w3.org/2000/svg">
<path fill-rule="evenodd" clip-rule="evenodd" d="M11.4361 6.27364C11.4361 8.88077 9.3299 10.9865 6.74134 10.9865C4.15278 10.9865 2.04661 8.88077 2.04661 6.27364C2.04661 3.6665 4.15278 1.56074 6.74134 1.56074C9.3299 1.56074 11.4361 3.6665 11.4361 6.27364ZM10.0948 11.5706C9.12559 12.189 7.97518 12.5473 6.74134 12.5473C3.28654 12.5473 0.48587 9.73847 0.48587 6.27364C0.48587 2.8088 3.28654 0 6.74134 0C10.1961 0 12.9968 2.8088 12.9968 6.27364C12.9968 7.93579 12.3523 9.44697 11.3002 10.5695L15.2627 14.5596L14.1629 15.667L10.0948 11.5706Z" fill="#1B1C1E"/>
</svg>
