<svg width="24" height="24" viewBox="0 0 24 24" fill="none" xmlns="http://www.w3.org/2000/svg">
<path d="M11.7143 19.9596L11.3905 19.6762C4.0238 13.6858 2.04047 11.581 2.04047 8.14052C2.04047 5.30719 4.34761 3.04053 7.14046 3.04053C9.48808 3.04053 10.8238 4.37624 11.7143 5.38814C12.6047 4.37624 13.9405 3.04053 16.2881 3.04053C19.1214 3.04053 21.3881 5.34767 21.3881 8.14052C21.3881 11.581 19.4048 13.6858 12.0381 19.6762L11.7143 19.9596ZM7.14046 4.0929C4.91427 4.0929 3.09284 5.91433 3.09284 8.14052C3.09284 11.0953 4.95475 13.0381 11.7143 18.5834C18.4738 13.0381 20.3357 11.0953 20.3357 8.14052C20.3357 5.91433 18.5143 4.0929 16.2881 4.0929C14.2643 4.0929 13.1714 5.30719 12.3214 6.27862L11.7143 6.96672L11.1071 6.27862C10.2571 5.30719 9.16427 4.0929 7.14046 4.0929Z" fill="#1B1C1E"/>
</svg>
